# File produced by Open Asset Import Library (http://www.assimp.sf.net)
# (assimp v3.1.206520482)

mtllib Mesh_Note.mtl

# 52 vertex positions
v 25 2.89353 -6.17591
v -25 2.89353 -6.17591
v -25 2.78864 1.49389
v 25 2.78864 1.4939
v 25 8.44555 -25.9469
v -25 8.44555 -25.947
v -25 5.45029 -19.8572
v 25 5.45029 -19.8571
v 25 3.90767 28.2903
v -25 3.90767 28.2903
v -25 3.85293 38.6154
v 25 3.85293 38.6154
v -25 3.10383 9.76874
v 25 3.10383 9.76875
v -25 3.69018 -13.2799
v 25 3.69018 -13.2799
v -25 3.13149 49.7022
v 25 3.13149 49.7022
v 25 19.2283 -36.8208
v -25 19.2283 -36.8208
v -25 12.9476 -31.5885
v 25 12.9477 -31.5884
v -25 3.56741 18.6878
v 25 3.56741 18.6878
v -25 1.47166 61.59
v 25 1.47166 61.5901
v -25 2.53425 1.3667
v -25 2.63914 -6.30311
v 25 2.63914 -6.3031
v 25 2.53425 1.3667
v -25 5.1959 -19.9844
v -25 8.19116 -26.0742
v 25 8.19116 -26.0741
v 25 5.1959 -19.9843
v -25 3.59854 38.4882
v -25 3.65328 28.1631
v 25 3.65328 28.1631
v 25 3.59854 38.4882
v -25 2.84944 9.64155
v 25 2.84944 9.64155
v -25 3.43579 -13.4071
v 25 3.43579 -13.4071
v -25 2.8771 49.575
v 25 2.8771 49.575
v -25 12.6933 -31.7157
v -25 18.9739 -36.948
v 25 18.9739 -36.948
v 25 12.6933 -31.7156
v -25 3.31302 18.5606
v 25 3.31302 18.5606
v -25 1.21727 61.4628
v 25 1.21727 61.4629

# 52 UV coordinates
vt 0.489772 0.652714 0
vt 0.00943985 0.652715 0
vt 0.00943979 0.579027 0
vt 0.489772 0.579026 0
vt 0.489772 0.851992 0
vt 0.00943994 0.851993 0
vt 0.00943988 0.786797 0
vt 0.489772 0.786796 0
vt 0.489772 0.321372 0
vt 0.00943976 0.321372 0
vt 0.00943979 0.222181 0
vt 0.489772 0.222181 0
vt 0.00943979 0.499476 0
vt 0.489772 0.499475 0
vt 0.00943988 0.721388 0
vt 0.489772 0.721387 0
vt 0.00943979 0.115448 0
vt 0.489772 0.115449 0
vt 0.489772 0.999861 0
vt 0.00944003 0.999861 0
vt 0.00943991 0.921331 0
vt 0.489772 0.92133 0
vt 0.00943976 0.413677 0
vt 0.489772 0.413677 0
vt 0.00943988 0.000138593 0
vt 0.489772 0.000138892 0
vt 0.993634 0.579027 0
vt 0.993634 0.652715 0
vt 0.513302 0.652715 0
vt 0.513302 0.579027 0
vt 0.993634 0.786797 0
vt 0.993634 0.851993 0
vt 0.513302 0.851993 0
vt 0.513302 0.786797 0
vt 0.993634 0.222181 0
vt 0.993634 0.321372 0
vt 0.513302 0.321372 0
vt 0.513302 0.222181 0
vt 0.993634 0.499476 0
vt 0.513302 0.499475 0
vt 0.993634 0.721388 0
vt 0.513302 0.721388 0
vt 0.993634 0.115449 0
vt 0.513302 0.115449 0
vt 0.993634 0.921331 0
vt 0.993634 0.999861 0
vt 0.513302 0.999861 0
vt 0.513302 0.921331 0
vt 0.993634 0.413677 0
vt 0.513302 0.413678 0
vt 0.993634 0.000138952 0
vt 0.513302 0.000138593 0

# 24 vertex normals
vn 4.62021e-09 0.999906 0.0136737
vn -8.78799e-08 0.897334 0.441352
vn -2.42087e-09 0.999986 0.00530163
vn 6.10396e-09 0.999275 -0.0380626
vn -4.23038e-08 0.966009 0.258508
vn -1.9319e-08 0.99789 0.0649337
vn -1.44403e-07 0.640078 0.76831
vn 1.61958e-09 0.998652 -0.0519054
vn -1.73444e-08 0.993771 0.111443
vn -2.24282e-08 0.990393 0.138283
vn -1.25994e-07 0.781618 0.623757
vn 2.1156e-09 0.999373 -0.0354126
vn -1.8259e-09 -0.999906 -0.0136737
vn 8.34148e-08 -0.897334 -0.441352
vn -6.599e-09 -0.999986 -0.00530163
vn 2.66347e-09 -0.999275 0.0380626
vn 3.95456e-08 -0.966009 -0.258508
vn 1.77876e-08 -0.99789 -0.0649337
vn 1.44403e-07 -0.640078 -0.76831
vn -4.32392e-09 -0.998652 0.0519054
vn 7.79196e-09 -0.993771 -0.111443
vn 2.19774e-08 -0.990393 -0.138283
vn 1.00188e-07 -0.781618 -0.623757
vn -1.99317e-08 -0.999373 0.0354126

# Mesh 'note_note' with 48 faces
g note_note
usemtl DefaultMaterial
f 1/1/1 2/2/1 3/3/1
f 3/3/1 4/4/1 1/1/1
f 5/5/2 6/6/2 7/7/2
f 7/7/2 8/8/2 5/5/2
f 9/9/3 10/10/3 11/11/3
f 11/11/3 12/12/3 9/9/3
f 4/4/4 3/3/4 13/13/4
f 13/13/4 14/14/4 4/4/4
f 8/8/5 7/7/5 15/15/5
f 15/15/5 16/16/5 8/8/5
f 12/12/6 11/11/6 17/17/6
f 17/17/6 18/18/6 12/12/6
f 19/19/7 20/20/7 21/21/7
f 21/21/7 22/22/7 19/19/7
f 14/14/8 13/13/8 23/23/8
f 23/23/8 24/24/8 14/14/8
f 16/16/9 15/15/9 2/2/9
f 2/2/9 1/1/9 16/16/9
f 18/18/10 17/17/10 25/25/10
f 25/25/10 26/26/10 18/18/10
f 22/22/11 21/21/11 6/6/11
f 6/6/11 5/5/11 22/22/11
f 24/24/12 23/23/12 10/10/12
f 10/10/12 9/9/12 24/24/12
f 27/27/13 28/28/13 29/29/13
f 29/29/13 30/30/13 27/27/13
f 31/31/14 32/32/14 33/33/14
f 33/33/14 34/34/14 31/31/14
f 35/35/15 36/36/15 37/37/15
f 37/37/15 38/38/15 35/35/15
f 39/39/16 27/27/16 30/30/16
f 30/30/16 40/40/16 39/39/16
f 41/41/17 31/31/17 34/34/17
f 34/34/17 42/42/17 41/41/17
f 43/43/18 35/35/18 38/38/18
f 38/38/18 44/44/18 43/43/18
f 45/45/19 46/46/19 47/47/19
f 47/47/19 48/48/19 45/45/19
f 49/49/20 39/39/20 40/40/20
f 40/40/20 50/50/20 49/49/20
f 28/28/21 41/41/21 42/42/21
f 42/42/21 29/29/21 28/28/21
f 51/51/22 43/43/22 44/44/22
f 44/44/22 52/52/22 51/51/22
f 32/32/23 45/45/23 48/48/23
f 48/48/23 33/33/23 32/32/23
f 36/36/24 49/49/24 50/50/24
f 50/50/24 37/37/24 36/36/24

